<?xml version="1.0" encoding="UTF-8"?>
<svg xmlns="http://www.w3.org/2000/svg" xmlns:xlink="http://www.w3.org/1999/xlink" width="0" height="0">
<symbol id="visit-arrow" width="18" height="18" viewBox="0 0 18 18" fill="none">
<path d="M1.75 16.25L16.25 1.75M16.25 1.75H2.75M16.25 1.75V15.25" stroke-width="2" stroke-linecap="round" stroke-linejoin="round"/>
</symbol>

<symbol id="arrow-left" width="24" height="24" viewBox="0 0 24 24" fill="none">
<path d="M20 12H4.00001" stroke-width="2" stroke-linecap="round" stroke-linejoin="round"/>
<path d="M10 18L4 12L10 6" stroke-width="2" stroke-linecap="round" stroke-linejoin="round"/>
</symbol>

<symbol id="arrow-right" width="24" height="24" viewBox="0 0 24 24" fill="none">
<path d="M4 12H20" stroke-width="2" stroke-linecap="round" stroke-linejoin="round"/>
<path d="M14 6L20 12L14 18" stroke-width="2" stroke-linecap="round" stroke-linejoin="round"/>
</symbol>

<symbol id="icon-down" width="14" height="9" viewBox="0 0 14 9" fill="none">
<path d="M13 1L7 7L1 1" stroke-width="2" stroke-linecap="round"/>
</symbol>

<symbol id="icon-up" width="14" height="9" viewBox="0 0 14 9" fill="none">
<path d="M13 8L7 2L1 8" stroke-width="2" stroke-linecap="round"/>
</symbol>

<symbol id="hourglass" width="24" height="24" viewBox="0 0 24 24" fill="none">
<path d="M18.1626 2H5.83744C5.37494 2 5 2.37494 5 2.83744C5 5.50268 6.05876 8.05876 7.94337 9.94337L9.16256 11.1626C9.28363 11.2836 9.34417 11.3442 9.3875 11.4023C9.65188 11.7569 9.65188 12.2431 9.3875 12.5977C9.34417 12.6558 9.28363 12.7164 9.16256 12.8374L7.94337 14.0566C6.05876 15.9412 5 18.4973 5 21.1626C5 21.6251 5.37494 22 5.83744 22H18.1626C18.6251 22 19 21.6251 19 21.1626C19 18.4973 17.9412 15.9412 16.0566 14.0566L14.8374 12.8374C14.7164 12.7164 14.6558 12.6558 14.6125 12.5977C14.3481 12.2431 14.3481 11.7569 14.6125 11.4023C14.6558 11.3442 14.7164 11.2836 14.8374 11.1626L16.0566 9.94337C17.9412 8.05876 19 5.50268 19 2.83744C19 2.37494 18.6251 2 18.1626 2Z" stroke-width="2" stroke-linecap="round" stroke-linejoin="round"/>
</symbol>

<symbol id="user" width="24" height="24" viewBox="0 0 24 24" fill="none">
<path d="M20 21C20 19.6044 20 18.9067 19.8278 18.3389C19.44 17.0605 18.4395 16.06 17.1611 15.6722C16.5933 15.5 15.8956 15.5 14.5 15.5H9.5C8.10444 15.5 7.40665 15.5 6.83886 15.6722C5.56045 16.06 4.56004 17.0605 4.17224 18.3389C4 18.9067 4 19.6044 4 21" stroke-width="2" stroke-linecap="round" stroke-linejoin="round"/>
<path d="M12 12C14.4853 12 16.5 9.98528 16.5 7.5C16.5 5.01472 14.4853 3 12 3C9.51472 3 7.5 5.01472 7.5 7.5C7.5 9.98528 9.51472 12 12 12Z" stroke-width="2" stroke-linecap="round" stroke-linejoin="round"/>
</symbol>

<symbol id="brush" width="22" height="23" viewBox="0 0 22 23" fill="none">
<path d="M1 20.9992C3 20.9992 5.60801 21.3409 6.97485 19.9741C8.34168 18.6072 8.34168 16.3912 6.97485 15.0243C5.60801 13.6575 3.39194 13.6575 2.0251 15.0243C0.658265 16.3912 2.0251 18.9992 1 20.9992Z" stroke-width="2" stroke-linecap="round" stroke-linejoin="round"/>
<path d="M6.99995 14.9992C6.50853 14.5078 6.26283 14.2621 6.12391 14.0048C5.79079 13.3877 5.80514 12.6413 6.16173 12.0376C6.31043 11.7858 6.5654 11.5497 7.07534 11.0775L16.9434 1.94044C17.8126 1.13565 19.1624 1.1616 19.9999 1.9992C20.8375 2.83679 20.8635 4.18657 20.0587 5.05574L10.9216 14.9238C10.4494 15.4337 10.2134 15.6887 9.96157 15.8374C9.35781 16.194 8.6114 16.2083 7.99438 15.8752C7.73707 15.7363 7.49136 15.4906 6.99995 14.9992Z" stroke-width="2" stroke-linecap="round" stroke-linejoin="round"/>
</symbol>

<symbol id="chat" width="24" height="24" viewBox="0 0 24 24" fill="none">
<path d="M6.09436 11.2288C6.03221 10.8282 5.99996 10.4179 5.99996 10C5.99996 5.58172 9.60525 2 14.0526 2C18.4999 2 22.1052 5.58172 22.1052 10C22.1052 10.9981 21.9213 11.9535 21.5852 12.8345C21.5154 13.0175 21.4804 13.109 21.4646 13.1804C21.4489 13.2512 21.4428 13.301 21.4411 13.3735C21.4394 13.4466 21.4493 13.5272 21.4692 13.6883L21.8717 16.9585C21.9153 17.3125 21.9371 17.4895 21.8782 17.6182C21.8266 17.731 21.735 17.8205 21.6211 17.8695C21.4911 17.9254 21.3146 17.8995 20.9617 17.8478L17.7765 17.3809C17.6101 17.3565 17.527 17.3443 17.4512 17.3448C17.3763 17.3452 17.3245 17.3507 17.2511 17.3661C17.177 17.3817 17.0823 17.4172 16.893 17.4881C16.0097 17.819 15.0524 18 14.0526 18C13.6344 18 13.2237 17.9683 12.8227 17.9073M7.63158 22C10.5965 22 13 19.5376 13 16.5C13 13.4624 10.5965 11 7.63158 11C4.66668 11 2.26316 13.4624 2.26316 16.5C2.26316 17.1106 2.36028 17.6979 2.53955 18.2467C2.61533 18.4787 2.65322 18.5947 2.66566 18.6739C2.67864 18.7567 2.68091 18.8031 2.67608 18.8867C2.67145 18.9668 2.65141 19.0573 2.61134 19.2383L2 22L4.9948 21.591C5.15827 21.5687 5.24 21.5575 5.31137 21.558C5.38652 21.5585 5.42641 21.5626 5.50011 21.5773C5.5701 21.5912 5.67416 21.6279 5.88227 21.7014C6.43059 21.8949 7.01911 22 7.63158 22Z" stroke-width="2" stroke-linecap="round" stroke-linejoin="round"/>
</symbol>

<symbol id="point" width="24" height="24" viewBox="0 0 24 24" fill="none">
<path d="M15 10.5C15 11.2956 14.6839 12.0587 14.1213 12.6213C13.5587 13.1839 12.7956 13.5 12 13.5C11.2044 13.5 10.4413 13.1839 9.87868 12.6213C9.31607 12.0587 9 11.2956 9 10.5C9 9.70435 9.31607 8.94129 9.87868 8.37868C10.4413 7.81607 11.2044 7.5 12 7.5C12.7956 7.5 13.5587 7.81607 14.1213 8.37868C14.6839 8.94129 15 9.70435 15 10.5V10.5Z" stroke-linecap="round" stroke-linejoin="round"/>
<path d="M19.5 10.5C19.5 17.642 12 21.75 12 21.75C12 21.75 4.5 17.642 4.5 10.5C4.5 8.51088 5.29018 6.60322 6.6967 5.1967C8.10322 3.79018 10.0109 3 12 3C13.9891 3 15.8968 3.79018 17.3033 5.1967C18.7098 6.60322 19.5 8.51088 19.5 10.5V10.5Z" stroke-linecap="round" stroke-linejoin="round"/>
</symbol>

<symbol id="mail" width="22" height="16" viewBox="0 0 22 16" fill="none">
<path d="M20.75 2.75V13.25C20.75 13.8467 20.5129 14.419 20.091 14.841C19.669 15.2629 19.0967 15.5 18.5 15.5H3.5C2.90326 15.5 2.33097 15.2629 1.90901 14.841C1.48705 14.419 1.25 13.8467 1.25 13.25V2.75M20.75 2.75C20.75 2.15326 20.5129 1.58097 20.091 1.15901C19.669 0.737053 19.0967 0.5 18.5 0.5H3.5C2.90326 0.5 2.33097 0.737053 1.90901 1.15901C1.48705 1.58097 1.25 2.15326 1.25 2.75M20.75 2.75V2.993C20.75 3.37715 20.6517 3.75491 20.4644 4.0903C20.2771 4.42569 20.0071 4.70754 19.68 4.909L12.18 9.524C11.8252 9.74253 11.4167 9.85825 11 9.85825C10.5833 9.85825 10.1748 9.74253 9.82 9.524L2.32 4.91C1.99292 4.70854 1.72287 4.42669 1.53557 4.0913C1.34827 3.75591 1.24996 3.37815 1.25 2.994V2.75" stroke-linecap="round" stroke-linejoin="round"/>
</symbol>

<symbol id="phone" width="22" height="22" viewBox="0 0 22 22" fill="none">
<path d="M1.25 5.75C1.25 14.034 7.966 20.75 16.25 20.75H18.5C19.0967 20.75 19.669 20.5129 20.091 20.091C20.5129 19.669 20.75 19.0967 20.75 18.5V17.128C20.75 16.612 20.399 16.162 19.898 16.037L15.475 14.931C15.035 14.821 14.573 14.986 14.302 15.348L13.332 16.641C13.05 17.017 12.563 17.183 12.122 17.021C10.4849 16.4191 8.99815 15.4686 7.76478 14.2352C6.53141 13.0018 5.58087 11.5151 4.979 9.878C4.817 9.437 4.983 8.95 5.359 8.668L6.652 7.698C7.015 7.427 7.179 6.964 7.069 6.525L5.963 2.102C5.90214 1.85869 5.76172 1.6427 5.56405 1.48834C5.36638 1.33397 5.1228 1.25008 4.872 1.25H3.5C2.90326 1.25 2.33097 1.48705 1.90901 1.90901C1.48705 2.33097 1.25 2.90326 1.25 3.5V5.75Z" stroke-linecap="round" stroke-linejoin="round"/>
</symbol>

<symbol id="order-arrow" width="30" height="16" viewBox="0 0 30 16">
<path d="M1 7C0.447715 7 -4.82823e-08 7.44772 0 8C4.82823e-08 8.55228 0.447715 9 1 9L1 7ZM29.7071 8.7071C30.0976 8.31658 30.0976 7.68341 29.7071 7.29289L23.3431 0.92893C22.9526 0.538406 22.3195 0.538406 21.9289 0.92893C21.5384 1.31945 21.5384 1.95262 21.9289 2.34314L27.5858 8L21.9289 13.6569C21.5384 14.0474 21.5384 14.6805 21.9289 15.0711C22.3195 15.4616 22.9526 15.4616 23.3431 15.0711L29.7071 8.7071ZM1 9L29 9L29 7L1 7L1 9Z"/>
</symbol>

<symbol id="burger" width="22" height="16" viewBox="0 0 22 16" fill="none">
<path d="M0.333984 15.027V13.6936H21.6673V15.027H0.333984ZM0.333984 8.66697V7.33363H21.6673V8.66697H0.333984ZM0.333984 2.30697V0.973633H21.6673V2.30697H0.333984Z"/>
</symbol>

<symbol id="x" width="32" height="32" viewBox="0 0 32 32" fill="none">
<path d="M24 8L8 24" stroke-width="2" stroke-linecap="round" stroke-linejoin="round"/>
<path d="M8 8L24 24" stroke-width="2" stroke-linecap="round" stroke-linejoin="round"/>
</symbol>

</svg>
